<svg xmlns="http://www.w3.org/2000/svg" viewBox="0 0 64 64">
  <rect width="64" height="64" rx="12" fill="#1f2357"/>
  <circle cx="46" cy="16" r="8" fill="#dfe3ea"/>
  <circle cx="50" cy="13" r="7" fill="#1f2357"/>
  <g fill="#d4a537"><circle cx="12" cy="12" r="1.2"/><circle cx="24" cy="8" r="1"/><circle cx="34" cy="18" r="1"/></g>
  <path d="M22 56V24l-3-3v-5h4v3h3v-3h4v3h3v-3h4v5l-3 3v32z" fill="#b7ad9c" stroke="#2a1d12" stroke-width="1.6" stroke-linejoin="round"/>
  <rect x="27" y="30" width="4" height="8" rx="1" fill="#ffcf6e" stroke="#2a1d12"/>
  <path d="M2 58c10-6 16-4 24-2s20 2 36-4v10H2z" fill="#3f5f2a" stroke="#2a1d12" stroke-width="1.4"/>
  <path d="M50 52c-1-6 1-11 4-15 3 4 5 9 4 15z" fill="#4f8a6b" stroke="#2a1d12" stroke-width="1.4"/>
</svg>
